Coordinates
version=1
nRows=21
nColumns=11
inDegrees=yes

Units are S.I. units (second, meters, Newtons, ...)
If the header above contains a line with 'inDegrees', this indicates whether rotational values are in degrees (yes) or radians (no).

endheader
time	pelvis_tilt	pelvis_tx	pelvis_ty	hip_flexion_l	hip_flexion_r	knee_angle_l	knee_angle_r	ankle_angle_l	ankle_angle_r	lumbar
     35.00000000	    -27.02198673	      0.10849807	      0.76858066	     83.22887708	     83.22887708	    -64.53097393	    -64.53097393	      9.79159252	      9.79159252	    -38.57064908
     35.01000000	    -27.00896091	      0.11169943	      0.77121534	     82.73760834	     82.73760834	    -64.21831285	    -64.21831285	      9.96054871	      9.96054871	    -38.16633390
     35.02000000	    -26.79856152	      0.11503735	      0.77432296	     82.01379562	     82.01379562	    -63.89743267	    -63.89743267	     10.37372808	     10.37372808	    -37.99303710
     35.03000000	    -26.85438773	      0.11801017	      0.77698162	     81.57483246	     81.57483246	    -63.51605404	    -63.51605404	     10.42910418	     10.42910418	    -37.48485069
     35.04000000	    -26.84189295	      0.12095693	      0.77989772	     81.04445432	     81.04445432	    -63.09670811	    -63.09670811	     10.50308621	     10.50308621	    -37.05801971
     35.05000000	    -26.59001195	      0.12408055	      0.78336389	     80.23677669	     80.23677669	    -62.67267561	    -62.67267561	     10.68824459	     10.68824459	    -36.91257883
     35.06000000	    -26.65069127	      0.12680073	      0.78622679	     79.77202872	     79.77202872	    -62.20125385	    -62.20125385	     10.73433649	     10.73433649	    -36.36851347
     35.07000000	    -26.62953083	      0.12953491	      0.78938734	     79.19839286	     79.19839286	    -61.69931560	    -61.69931560	     10.78036099	     10.78036099	    -35.93862884
     35.08000000	    -26.62389854	      0.13218408	      0.79257416	     78.63347595	     78.63347595	    -61.16719377	    -61.16719377	     10.82054572	     10.82054572	    -35.48034579
     35.09000000	    -26.30347543	      0.13508967	      0.79650914	     77.69648675	     77.69648675	    -60.60902516	    -60.60902516	     10.86335100	     10.86335100	    -35.41632834
     35.10000000	    -26.39052428	      0.13754129	      0.79959408	     77.22428690	     77.22428690	    -60.03881451	    -60.03881451	     10.89323199	     10.89323199	    -34.83273477
     35.11000000	    -26.42543248	      0.13999385	      0.80288364	     76.67433208	     76.67433208	    -59.43001557	    -59.43001557	     10.90362248	     10.90362248	    -34.32018186
     35.12000000	    -26.16042146	      0.14268935	      0.80692575	     75.76259990	     75.76259990	    -58.77431134	    -58.77431134	     10.80649718	     10.80649718	    -34.19283977
     35.13000000	    -26.12416738	      0.14512430	      0.81048617	     75.11116009	     75.11116009	    -58.11234627	    -58.11234627	     10.75287283	     10.75287283	    -33.76944031
     35.14000000	    -26.09035063	      0.14750621	      0.81408254	     74.45547905	     74.45547905	    -57.42642546	    -57.42642546	     10.68397898	     10.68397898	    -33.34249877
     35.15000000	    -26.06158541	      0.14985966	      0.81771542	     73.79277964	     73.79277964	    -56.71743359	    -56.71743359	     10.60208753	     10.60208753	    -32.90337460
     35.16000000	    -26.18195393	      0.15204318	      0.82102573	     73.29804521	     73.29804521	    -56.01091065	    -56.01091065	     10.61266275	     10.61266275	    -32.26221015
     35.17000000	    -26.01103124	      0.15445080	      0.82507023	     72.44687321	     72.44687321	    -55.23179467	    -55.23179467	     10.41108433	     10.41108433	    -32.00003802
     35.18000000	    -26.13935893	      0.15655345	      0.82839625	     71.94859737	     71.94859737	    -54.48597192	    -54.48597192	     10.41656219	     10.41656219	    -31.33721037
     35.19000000	    -26.20748237	      0.15868494	      0.83188640	     71.36472899	     71.36472899	    -53.69678399	    -53.69678399	     10.37732591	     10.37732591	    -30.74175688
     35.20000000	    -25.95904479	      0.16106924	      0.83615324	     70.41027317	     70.41027317	    -52.86987978	    -52.86987978	     10.04969169	     10.04969169	    -30.56926937
